<?xml version="1.0" encoding="UTF-8"?>
<!-- Generated by Pixelmator Pro 3.5.7 -->
<svg width="1080" height="1080" viewBox="0 0 1080 1080" xmlns="http://www.w3.org/2000/svg">
    <path id="DO" fill="#674ea7" fill-rule="evenodd" stroke="#000000" stroke-width="20" d="M 654.400024 546.900024 C 654.400024 526.533203 656.674988 506.816772 661.224976 487.75 C 665.775024 468.683228 673.033264 451.675049 683 436.724976 C 692.966736 421.774902 705.966614 409.858398 722 400.974976 C 738.033386 392.091614 757.533203 387.650024 780.5 387.650024 C 803.466797 387.650024 822.966614 392.091614 839 400.974976 C 855.033386 409.858398 868.033264 421.774902 878 436.724976 C 887.966736 451.675049 895.224976 468.683228 899.775024 487.75 C 904.325012 506.816772 906.599976 526.533203 906.599976 546.900024 C 906.599976 566.400085 904.325012 585.358276 899.775024 603.775024 C 895.224976 622.191772 887.966736 638.766602 878 653.5 C 868.033264 668.233398 855.033386 680.041626 839 688.924988 C 822.966614 697.80835 803.466797 702.25 780.5 702.25 C 757.533203 702.25 738.033386 697.80835 722 688.924988 C 705.966614 680.041626 692.966736 668.233398 683 653.5 C 673.033264 638.766602 665.775024 622.191772 661.224976 603.775024 C 656.674988 585.358276 654.400024 566.400085 654.400024 546.900024 Z M 552.349976 546.900024 C 552.349976 580.700195 557.549927 612.224854 567.950012 641.474976 C 578.350037 670.725159 593.299927 696.183228 612.799988 717.849976 C 632.30011 739.516785 656.241516 756.524902 684.625 768.875 C 713.008484 781.225098 744.966492 787.400024 780.5 787.400024 C 816.466858 787.400024 848.533203 781.225098 876.700012 768.875 C 904.866821 756.524902 928.69989 739.516785 948.200012 717.849976 C 967.700073 696.183228 982.649963 670.725159 993.049988 641.474976 C 1003.450073 612.224854 1008.650024 580.700195 1008.650024 546.900024 C 1008.650024 512.233154 1003.450073 480.058472 993.049988 450.375 C 982.649963 420.691528 967.700073 394.80011 948.200012 372.700012 C 928.69989 350.599915 904.866821 333.266724 876.700012 320.700012 C 848.533203 308.133301 816.466858 301.849976 780.5 301.849976 C 744.966492 301.849976 713.008484 308.133301 684.625 320.700012 C 656.241516 333.266724 632.30011 350.599915 612.799988 372.700012 C 593.299927 394.80011 578.350037 420.691528 567.950012 450.375 C 557.549927 480.058472 552.349976 512.233154 552.349976 546.900024 Z M 192.899994 691.200012 L 192.899994 398.700012 L 265.700012 398.700012 C 290.833466 398.700012 311.958252 402.274963 329.075012 409.424988 C 346.191742 416.575012 359.949951 426.866577 370.350006 440.299988 C 380.750061 453.733398 388.224976 469.874878 392.774994 488.724976 C 397.325012 507.575073 399.600006 528.69989 399.600006 552.099976 C 399.600006 577.666809 396.350037 599.333252 389.850006 617.099976 C 383.349976 634.86676 374.68338 649.274902 363.850006 660.325012 C 353.016602 671.375061 340.666748 679.283325 326.799988 684.049988 C 312.933258 688.81665 298.633392 691.200012 283.899994 691.200012 Z M 90.849998 312.900024 L 90.849998 777 L 291.049988 777 C 326.583496 777 357.458191 771.041748 383.674988 759.125 C 409.891785 747.208252 431.774902 730.850098 449.325012 710.049988 C 466.875092 689.249878 479.983276 664.550171 488.649994 635.950012 C 497.316711 607.349854 501.649994 576.150146 501.649994 542.349976 C 501.649994 503.783142 496.341705 470.200134 485.725006 441.599976 C 475.108276 412.999878 460.375092 389.166748 441.524994 370.099976 C 422.674896 351.033264 400.358459 336.733398 374.575012 327.200012 C 348.791534 317.666626 320.950134 312.900024 291.049988 312.900024 Z"/>
</svg>
